<?xml version="1.0" standalone="no"?><!DOCTYPE svg PUBLIC "-//W3C//DTD SVG 1.1//EN" "http://www.w3.org/Graphics/SVG/1.1/DTD/svg11.dtd"><svg t="1693310006509" class="icon" viewBox="0 0 1024 1024" version="1.1" xmlns="http://www.w3.org/2000/svg" p-id="6727" xmlns:xlink="http://www.w3.org/1999/xlink" width="128" height="128"><path d="M597.954 1013.14a29.79 29.79 0 0 1-29.79-29.79V864.287a29.79 29.79 0 0 1 59.548 0v119.094c0 16.446-13.343 29.758-29.79 29.758z m357.22-357.252c0 16.446-13.342 29.789-29.757 29.789H806.322a29.79 29.79 0 1 1 0-59.579h119.095c16.446 0 29.789 13.343 29.789 29.79zM839.712 897.645a29.727 29.727 0 0 1-42.108 0l-84.185-84.186a29.79 29.79 0 0 1 42.108-42.077l84.185 84.186a29.727 29.727 0 0 1 0 42.077zM419.312 0.93c16.447 0 29.79 13.343 29.79 29.789v119.063a29.79 29.79 0 1 1-59.579 0V30.69c0-16.446 13.343-29.758 29.79-29.758zM62.061 358.183c0-16.446 13.343-29.79 29.789-29.79h119.063a29.79 29.79 0 0 1 0 59.579H91.85a29.79 29.79 0 0 1-29.758-29.79z m115.494-241.757a29.727 29.727 0 0 1 42.077 0l84.186 84.185a29.79 29.79 0 1 1-42.077 42.046l-84.186-84.154a29.727 29.727 0 0 1 0-42.077zM631.622 642.11a135.789 135.789 0 0 1-67.801-18.432l-42.109-24.297C461.08 564.317 437.62 491.086 469.426 436.1a29.79 29.79 0 1 1 51.542 29.789c-15.36 26.593-1.645 63.302 30.565 81.92l42.077 24.297c32.21 18.618 70.935 12.07 86.264-14.522l213.675-370.13c7.106-12.288 8.192-27.245 3.134-42.17-5.493-16.291-17.47-30.41-33.7-39.812l-42.076-24.235c-16.198-9.402-34.35-12.66-51.324-9.309-15.485 3.103-27.897 11.544-34.94 23.8l-97.746 169.333a29.79 29.79 0 0 1-51.572-29.79L683.07 65.94c15.763-27.306 42.356-45.924 74.845-52.44a133.461 133.461 0 0 1 92.78 16.135l42.047 24.297c28.765 16.6 50.238 42.294 60.354 72.3 10.55 31.372 7.757 63.705-8.006 90.981l-213.706 370.13c-20.418 35.405-58.802 54.768-99.762 54.768z" fill="#d4237a" p-id="6728"></path><path d="M323.801 913.687a136.068 136.068 0 0 1-67.956-18.556l-42.077-24.297c-60.633-35.002-84.092-108.295-52.317-163.281l213.674-370.16c31.775-54.986 106.93-71.308 167.626-36.306l42.077 24.297c60.664 35.033 84.092 108.264 52.348 163.281a29.79 29.79 0 0 1-51.572-29.789c15.39-26.593 1.676-63.333-30.503-81.92l-42.108-24.328c-32.21-18.618-70.904-12.04-86.264 14.523L213.023 737.28c-15.36 26.624-1.676 63.395 30.565 81.951l42.077 24.297c16.229 9.37 34.475 12.66 51.324 9.309 15.515-3.103 27.927-11.574 34.971-23.8l97.746-169.333a29.79 29.79 0 1 1 51.572 29.79l-97.745 169.3c-15.826 27.307-42.357 45.926-74.877 52.442a126.82 126.82 0 0 1-24.824 2.451z" fill="#d4237a" p-id="6729"></path></svg>